<svg width="65" height="60" viewBox="0 0 65 60" fill="none" xmlns="http://www.w3.org/2000/svg">
<rect width="65" height="60" fill="white"/>
<circle cx="32" cy="30" r="25" fill="#ED60D3"/>
<path fill-rule="evenodd" clip-rule="evenodd" d="M45.965 25.8271C46.6258 26.9879 47 28.3094 47 29.7115C47 34.3222 42.9453 38.0769 37.9435 38.0769H27.0625V41.4231L19.8125 36.4038L27.0625 31.3846V34.7308H37.9426C40.9428 34.7308 43.375 32.4779 43.375 29.7115C43.375 29.0647 43.2426 28.4465 43.0015 27.8788L45.965 25.8271ZM21.625 29.7115C21.625 30.3583 21.7574 30.9765 21.9985 31.5443L19.035 33.5959C18.3742 32.4352 18 31.1136 18 29.7115C18 25.1009 22.0547 21.3462 27.0565 21.3462H37.9375V18L45.1875 23.0192L37.9375 28.0385V24.6923H27.0574C24.0572 24.6923 21.625 26.9451 21.625 29.7115Z" fill="white"/>
</svg>
