<svg width="50" height="47" viewBox="0 0 50 47" fill="none" xmlns="http://www.w3.org/2000/svg">
<path d="M48 14.9421V37C48 41.4183 44.4183 45 40 45H10C5.58172 45 2 41.4183 2 37V14.9421C2 12.2551 4.17821 10.0769 6.86517 10.0769C9.43621 10.0769 11.8806 8.96074 13.5645 7.01783L16.717 3.38028C17.4768 2.50363 18.5797 2 19.7398 2H25H30.2602C31.4203 2 32.5232 2.50363 33.283 3.38028L36.4355 7.01783C38.1194 8.96074 40.5638 10.0769 43.1348 10.0769C45.8218 10.0769 48 12.2551 48 14.9421Z" stroke="white" stroke-width="4"/>
<circle cx="25" cy="25" r="8" stroke="white" stroke-width="4"/>
</svg>
