<svg width="65" height="54" viewBox="0 0 65 54" fill="none" xmlns="http://www.w3.org/2000/svg">
<path fill-rule="evenodd" clip-rule="evenodd" d="M62.6801 18.2936C64.1613 20.8953 65 23.8573 65 27C65 37.3343 55.9119 45.75 44.701 45.75H20.3125V53.25L4.0625 42L20.3125 30.75V38.25H44.699C51.4236 38.25 56.875 33.2006 56.875 27C56.875 25.5503 56.5783 24.1646 56.0379 22.8921L62.6801 18.2936ZM8.125 27C8.125 28.4497 8.42168 29.8354 8.9621 31.1079L2.31987 35.7064C0.838662 33.1047 0 30.1427 0 27C0 16.6657 9.08814 8.25 20.299 8.25H44.6875V0.75L60.9375 12L44.6875 23.25V15.75H20.301C13.5764 15.75 8.125 20.7994 8.125 27Z" fill="#C1C1D0"/>
</svg>
