<svg width="50" height="50" viewBox="0 0 50 50" fill="none" xmlns="http://www.w3.org/2000/svg">
<circle cx="25" cy="25" r="25" fill="#ED60D3"/>
<path fill-rule="evenodd" clip-rule="evenodd" d="M38.965 20.8271C39.6258 21.9879 40 23.3094 40 24.7115C40 29.3222 35.9453 33.0769 30.9435 33.0769H20.0625V36.4231L12.8125 31.4038L20.0625 26.3846V29.7308H30.9426C33.9428 29.7308 36.375 27.4779 36.375 24.7115C36.375 24.0647 36.2426 23.4465 36.0015 22.8788L38.965 20.8271ZM14.625 24.7115C14.625 25.3583 14.7574 25.9765 14.9985 26.5443L12.035 28.5959C11.3742 27.4352 11 26.1136 11 24.7115C11 20.1009 15.0547 16.3462 20.0565 16.3462H30.9375V13L38.1875 18.0192L30.9375 23.0385V19.6923H20.0574C17.0572 19.6923 14.625 21.9451 14.625 24.7115Z" fill="white"/>
</svg>
